<svg width="24" height="24" viewBox="0 0 24 24" fill="none" xmlns="http://www.w3.org/2000/svg">
<path d="M16.5188 9.34692H21.0188V4.84692" stroke="#828282" stroke-width="1.5" stroke-linecap="round" stroke-linejoin="round"/>
<path d="M6.1687 6.16873C6.93407 5.40224 7.84304 4.79417 8.84362 4.37929C9.84421 3.9644 10.9168 3.75085 12 3.75085C13.0831 3.75085 14.1557 3.9644 15.1563 4.37929C16.1569 4.79417 17.0658 5.40224 17.8312 6.16873L21.0187 9.34685" stroke="#828282" stroke-width="1.5" stroke-linecap="round" stroke-linejoin="round"/>
<path d="M7.4812 14.6531H2.9812V19.1531" stroke="#828282" stroke-width="1.5" stroke-linecap="round" stroke-linejoin="round"/>
<path d="M17.8312 17.8312C17.0658 18.5977 16.1569 19.2058 15.1563 19.6206C14.1557 20.0355 13.0831 20.2491 12 20.2491C10.9168 20.2491 9.84421 20.0355 8.84362 19.6206C7.84304 19.2058 6.93407 18.5977 6.1687 17.8312L2.9812 14.6531" stroke="#828282" stroke-width="1.5" stroke-linecap="round" stroke-linejoin="round"/>
</svg>
