<svg width="26" height="25" viewBox="0 0 26 25" fill="none" xmlns="http://www.w3.org/2000/svg">
<path d="M25 7.99999H18.925L19.9875 2.17499C20.0105 2.04531 20.0077 1.91237 19.9793 1.78377C19.9509 1.65517 19.8975 1.53342 19.822 1.42547C19.6696 1.20746 19.4369 1.0589 19.175 1.01249C18.9131 0.966079 18.6435 1.02561 18.4255 1.17798C18.2075 1.33035 18.0589 1.56309 18.0125 1.82499L16.8875 7.99999H10.925L11.9875 2.17499C12.0339 1.91309 11.9744 1.64348 11.822 1.42547C11.6696 1.20746 11.4369 1.0589 11.175 1.01249C10.9131 0.966079 10.6435 1.02561 10.4255 1.17798C10.2075 1.33035 10.0589 1.56309 10.0125 1.82499L8.8875 7.99999H2.45C2.18478 7.99999 1.93043 8.10535 1.74289 8.29289C1.55536 8.48042 1.45 8.73478 1.45 8.99999C1.45 9.26521 1.55536 9.51956 1.74289 9.7071C1.93043 9.89463 2.18478 9.99999 2.45 9.99999H8.525L7.4375 16H1C0.734784 16 0.48043 16.1053 0.292893 16.2929C0.105357 16.4804 0 16.7348 0 17C0 17.2652 0.105357 17.5196 0.292893 17.7071C0.48043 17.8946 0.734784 18 1 18H7.075L6.0125 23.825C5.98912 23.9547 5.99162 24.0878 6.01986 24.2165C6.04809 24.3453 6.10149 24.4672 6.177 24.5752C6.25251 24.6832 6.34864 24.7753 6.45984 24.846C6.57105 24.9168 6.69515 24.9649 6.825 24.9875H7C7.23537 24.9882 7.46344 24.9058 7.64407 24.7549C7.8247 24.604 7.94631 24.3942 7.9875 24.1625L9.1125 17.9875H15.075L14.0125 23.8125C13.9891 23.9422 13.9916 24.0753 14.0199 24.204C14.0481 24.3328 14.1015 24.4547 14.177 24.5627C14.2525 24.6707 14.3486 24.7628 14.4598 24.8335C14.571 24.9043 14.6951 24.9524 14.825 24.975H15C15.2354 24.9757 15.4634 24.8933 15.6441 24.7424C15.8247 24.5915 15.9463 24.3817 15.9875 24.15L17.1125 17.975H23.55C23.8152 17.975 24.0696 17.8696 24.2571 17.6821C24.4446 17.4946 24.55 17.2402 24.55 16.975C24.55 16.7098 24.4446 16.4554 24.2571 16.2679C24.0696 16.0803 23.8152 15.975 23.55 15.975H17.475L18.5625 9.97499H25C25.2652 9.97499 25.5196 9.86963 25.7071 9.6821C25.8946 9.49456 26 9.24021 26 8.97499C26 8.70978 25.8946 8.45542 25.7071 8.26788C25.5196 8.08035 25.2652 7.97499 25 7.97499V7.99999ZM15.4375 16H9.475L10.5625 9.99999H16.525L15.4375 16Z" fill="white"/>
</svg>
